# File created by Blade
# Date/Time:  Thu Sep 25 17:43:48 2014
# Frame Rate: 120.000 fps
#------------------------------------------------------
:FULLY-SPECIFIED
:DEGREES
295
root -35.832453 32.706099 -4.416883 -349.534833 4.321299 5.083773
Spine -1.661896 13.780645 6.933482
Head -8.789710 31.270148 -6.117388
LeftShoulder -12.553404 23.285271 1.936895
LeftArm 15.293955 24.294446 -83.305357
LeftForeArm -13.426007 0.000000 14.552636
LeftHand -20.440556 -0.000000 -5.742287
LeftHandThumb1 -26.253704 0.000000 33.147579
RightShoulder -14.740456 7.692928 -25.621485
RightArm -14.211474 -43.900275 94.687680
RightForeArm -6.634904 0.000000 32.370460
RightHand -2.302048 0.000000 15.873725
RightHandThumb1 -24.326973 -0.000000 -32.862282
LeftUpLeg -14.275312 1.891527 10.229797
LeftLeg 6.652300 -0.000000 -0.000000
LeftFoot -7.982132 22.437946 341.583905
LeftToeBase -4.595621 -0.000000 0.000000
RightUpLeg -5.425923 -27.470112 -4.564604
RightLeg 0.950041 -0.000000 -0.000000
RightFoot -9.049598 -10.682106 5.057582
RightToeBase 4.627701 -0.000000 -0.000000
296
root -35.685005 32.686917 -4.439386 -349.544195 4.100773 4.927783
Spine -1.680125 13.698313 6.935243
Head -8.648452 31.835819 -6.006211
LeftShoulder -12.734681 23.517040 1.772870
LeftArm 15.689154 24.713884 -83.186775
LeftForeArm -13.562952 -0.000000 14.659910
LeftHand -20.172626 0.000000 -6.723364
LeftHandThumb1 -26.253704 0.000000 33.147579
RightShoulder -14.776875 7.683400 -25.563423
RightArm -14.372877 -44.266441 95.258089
RightForeArm -6.351336 -0.000000 32.572705
RightHand -2.273408 -0.000000 15.893102
RightHandThumb1 -24.326973 -0.000000 -32.862282
LeftUpLeg -13.966563 1.679980 10.782516
LeftLeg 6.563676 -0.000000 -0.000000
LeftFoot -7.970215 22.838783 341.377864
LeftToeBase -4.429147 -0.000000 0.000000
RightUpLeg -5.507079 -27.437892 -4.676505
RightLeg 0.958904 -0.000000 -0.000000
RightFoot -8.975975 -10.450238 5.268753
RightToeBase 4.510129 -0.000000 -0.000000
297
root -35.534316 32.668113 -4.463507 -349.533383 3.907727 4.760730
Spine -1.747914 13.690637 6.923550
Head -8.454883 32.266681 -5.854783
LeftShoulder -12.728248 23.404910 1.766814
LeftArm 15.719556 25.149197 -83.192476
LeftForeArm -13.646556 0.000000 14.805433
LeftHand -19.758285 0.000000 -7.833946
LeftHandThumb1 -26.253704 0.000000 33.147579
RightShoulder -14.883386 7.608358 -25.488086
RightArm -14.505532 -44.492003 95.778169
RightForeArm -6.119663 0.000000 32.746972
RightHand -2.184642 0.000000 16.123163
RightHandThumb1 -24.326973 -0.000000 -32.862282
LeftUpLeg -13.843711 1.956784 11.189756
LeftLeg 6.770911 -0.000000 -0.000000
LeftFoot -7.840010 22.945930 341.658439
LeftToeBase -4.438644 -0.000000 0.000000
RightUpLeg -5.585399 -27.352157 -4.778653
RightLeg 0.923256 -0.000000 -0.000000
RightFoot -8.806714 -10.302770 5.264760
RightToeBase 4.685340 -0.000000 -0.000000
298
root -35.385394 32.647087 -4.482988 -349.554315 3.704418 4.548930
Spine -1.790418 13.697562 6.937643
Head -8.274518 32.708647 -5.653944
LeftShoulder -12.707368 23.190889 1.817176
LeftArm 15.662117 25.770044 -83.116916
LeftForeArm -13.619024 0.000000 15.104276
LeftHand -19.446645 -0.000000 -8.747546
LeftHandThumb1 -26.253704 0.000000 33.147579
RightShoulder -15.002705 7.541647 -25.355146
RightArm -14.659521 -44.856795 96.274431
RightForeArm -5.908599 -0.000000 32.918670
RightHand -2.057271 -0.000000 16.303394
RightHandThumb1 -24.326973 -0.000000 -32.862282
LeftUpLeg -13.647547 2.166327 11.669796
LeftLeg 6.938575 -0.000000 -0.000000
LeftFoot -7.759311 23.012409 341.827756
LeftToeBase -4.446828 -0.000000 0.000000
RightUpLeg -5.610416 -27.267509 -4.849553
RightLeg 0.856328 -0.000000 -0.000000
RightFoot -8.660676 -10.149830 5.297930
RightToeBase 4.784492 -0.000000 -0.000000
299
root -35.234709 32.624385 -4.511580 -349.524127 3.569736 4.377185
Spine -1.884740 13.647223 6.882757
Head -8.145382 33.090323 -5.468790
LeftShoulder -12.691092 23.000364 1.924595
LeftArm 15.740444 26.500298 -82.949397
LeftForeArm -13.621035 -0.000000 15.402178
LeftHand -18.980483 -0.000000 -9.417401
LeftHandThumb1 -26.253704 0.000000 33.147579
RightShoulder -15.142050 7.458546 -25.232025
RightArm -14.797192 -45.195236 96.777116
RightForeArm -5.711200 0.000000 33.115673
RightHand -1.994273 -0.000000 16.449391
RightHandThumb1 -24.326973 -0.000000 -32.862282
LeftUpLeg -13.537392 2.260886 12.131784
LeftLeg 7.092533 -0.000000 -0.000000
LeftFoot -7.648568 23.148419 341.887207
LeftToeBase -4.499421 -0.000000 0.000000
RightUpLeg -5.729277 -27.198719 -4.935158
RightLeg 0.880797 -0.000000 -0.000000
RightFoot -8.573380 -10.032462 5.384674
RightToeBase 4.892575 -0.000000 -0.000000
300
root -35.070067 32.600186 -4.532533 -349.536163 3.359082 4.212913
Spine -1.942237 13.686465 6.854129
Head -7.936310 33.490272 -5.245716
LeftShoulder -12.661596 22.901944 1.981225
LeftArm 15.902385 27.251986 -82.640703
LeftForeArm -13.420305 -0.000000 15.841353
LeftHand -18.656715 -0.000000 -10.463645
LeftHandThumb1 -26.253704 0.000000 33.147579
RightShoulder -15.256046 7.402086 -25.147206
RightArm -15.026594 -45.398818 97.320288
RightForeArm -5.663941 -0.000000 33.301845
RightHand -1.914806 -0.000000 16.711733
RightHandThumb1 -24.326973 -0.000000 -32.862282
LeftUpLeg -13.308115 2.350075 12.542261
LeftLeg 7.214580 -0.000000 -0.000000
LeftFoot -7.714464 23.261183 341.814703
LeftToeBase -4.277848 -0.000000 0.000000
RightUpLeg -5.783353 -26.989510 -5.106113
RightLeg 0.897057 -0.000000 -0.000000
RightFoot -8.528502 -9.920803 5.636846
RightToeBase 4.999981 -0.000000 -0.000000
